PathFileType        4      (X/Y/Z)      C:\Users\pc\Desktop\IMUTRC\Sujet_07\Sujet_07_velo_60.trc         
DataRate	CameraRate	NumFrames	NumMarkers	Units	OrigDataRate	OrigDataStartFrame	OrigNumFrames
60.0	60.0	4	64	mm	60.0	468	935
Frame#	Time	pHipOrigin			pRightASI			pLeftASI			pRightCSI			pLeftCSI			pRightIschialTub			pLeftIschialTub			pSacrum			pL5SpinalProcess			pL3SpinalProcess			pT12SpinalProcess			pIJ			pT4SpinalProcess			pT8SpinalProcess			pPX			pC7SpinalProcess			pTopOfHead			pRightAuricularis			pLeftAuricularis			pBackOfHead			pRightAcromion			pLeftAcromion			pRightArmLatEpicondyle			pRightArmMedEpicondyle			pLeftArmLatEpicondyle			pLeftArmMedEpicondyle			pRightUlnarStyloid			pRightRadialStyloid			pRightOlecranon			pLeftUlnarStyloid			pLeftRadialStyloid			pLeftOlecranon			pRightTopOfHand			pRightPinky			pRightBallHand			pLeftTopOfHand			pLeftPinky			pLeftBallHand			pRightGreaterTrochanter			pRightKneeLatEpicondyle			pRightKneeMedEpicondyle			pRightPatella			pLeftGreaterTrochanter			pLeftKneeLatEpicondyle			pLeftKneeMedEpicondyle			pLeftPatella			pRightTibialTub			pRightLatMalleolus			pRightMedMalleolus			pLeftTibialTub			pLeftLatMalleolus			pLeftMedMalleolus			pRightHeelFoot			pRightFirstMetatarsal			pRightFifthMetatarsal			pRightPivotFoot			pRightHeelCenter			pRightToe			pLeftHeelFoot			pLeftFirstMetatarsal			pLeftFifthMetatarsal			pLeftPivotFoot			pLeftHeelCenter			pLeftToe			
		X1	Y1	Z1	X2	Y2	Z2	X3	Y3	Z3	X4	Y4	Z4	X5	Y5	Z5	X6	Y6	Z6	X7	Y7	Z7	X8	Y8	Z8	X9	Y9	Z9	X10	Y10	Z10	X11	Y11	Z11	X12	Y12	Z12	X13	Y13	Z13	X14	Y14	Z14	X15	Y15	Z15	X16	Y16	Z16	X17	Y17	Z17	X18	Y18	Z18	X19	Y19	Z19	X20	Y20	Z20	X21	Y21	Z21	X22	Y22	Z22	X23	Y23	Z23	X24	Y24	Z24	X25	Y25	Z25	X26	Y26	Z26	X27	Y27	Z27	X28	Y28	Z28	X29	Y29	Z29	X30	Y30	Z30	X31	Y31	Z31	X32	Y32	Z32	X33	Y33	Z33	X34	Y34	Z34	X35	Y35	Z35	X36	Y36	Z36	X37	Y37	Z37	X38	Y38	Z38	X39	Y39	Z39	X40	Y40	Z40	X41	Y41	Z41	X42	Y42	Z42	X43	Y43	Z43	X44	Y44	Z44	X45	Y45	Z45	X46	Y46	Z46	X47	Y47	Z47	X48	Y48	Z48	X49	Y49	Z49	X50	Y50	Z50	X51	Y51	Z51	X52	Y52	Z52	X53	Y53	Z53	X54	Y54	Z54	X55	Y55	Z55	X56	Y56	Z56	X57	Y57	Z57	X58	Y58	Z58	X59	Y59	Z59	X60	Y60	Z60	X61	Y61	Z61	X62	Y62	Z62	X63	Y63	Z63	X64	Y64	Z64	
468	7.783	0.0	1249.97763	7.653905517926474E-14	111.42596588193172	1329.50749	131.21310581005815	94.33072364828975	1312.72528	-152.09844607357684	91.77037417844383	1410.29972	102.28716929332839	77.71178524708658	1396.48781	-130.73936039483544	-72.42625460074346	1219.38352	64.85177277040694	-79.44195854317958	1212.47756	-51.610771550432474	-57.265569518676394	1296.2401	0.7213359307152286	19.036541785554924	1380.74521	-7.873197572989005	105.75104359862092	1467.10676	-23.660920466242867	187.7901638661415	1542.998	-40.26156497784218	452.1661466649448	1513.96329	-86.63875948632513	362.1289138124709	1643.0972	-77.57115761293055	278.06564226115296	1605.96841	-59.39530023558848	339.5670825574892	1458.34437	-61.95831956750683	416.79974601282913	1665.6715	-87.16465667602371	690.3855700448755	1660.02792	-116.82042413012654	595.9325707515472	1633.88926	-38.61923042681458	583.1488163752664	1654.16157	-181.47743833561523	581.3370172625044	1699.68146	-101.40847021920332	440.0384365717988	1597.42879	101.00103057446957	371.64517945792863	1600.62187	-268.2620732091856	466.33680077240047	1312.50251	59.163807623077126	428.270576292314	1314.06191	7.175422474908994	397.68711880181115	1307.52725	-258.71445528041716	367.84870853298594	1302.70051	-201.68627267772703	538.9467018849865	1066.33867	23.39994976352603	588.131905395768	1088.09614	17.070218302237674	422.64971201672245	1306.41339	38.742784982682416	454.9638638608351	1053.12082	-255.74228781481636	502.1789595178379	1071.61096	-274.69933237696983	358.98902414562633	1300.25001	-222.57854917979535	731.1167620167695	1035.67029	118.57226192171174	652.3091792512497	1010.94252	71.35777929328128	597.6382466654111	1048.07131	27.188952229126933	585.6981126670673	991.48704	-416.8339890365614	533.9414905909487	981.2395	-337.73346997258284	505.1274124199807	1029.13563	-281.14284260720507	37.93882844426112	1234.23503	171.61520155490055	408.5216761184056	996.16527	115.04504096972428	406.04805000581945	1000.32369	29.329307075652483	430.40990272208956	1040.42278	70.74736040456287	-6.839910641036809	1225.76967	-178.6978472504932	209.85719975868582	844.53132	-248.8296523161751	231.45743186231562	833.91248	-166.3906317749422	260.38660711428935	866.21453	-211.59643313242498	454.45115974765395	958.59094	70.39388175846301	308.95761750782043	576.90704	139.2769290910234	305.2603189655262	572.15456	73.94803801702729	252.04367663208038	785.19952	-216.15599365322385	-16.31355293542643	470.19892	-198.22967746387707	0.6196826661350272	466.26327	-135.0339818623156	260.6596558934767	495.22372	109.76293250907796	427.2326269275783	482.00587	81.00304351031511	422.8458080836415	487.57519	160.1855366316142	447.530400191273	483.19399	120.84640893708271	301.32461600794204	497.30293	111.80453550306211	539.4826685210687	475.39695	126.43220831866981	-86.78830804500458	424.97606	-147.59960096311332	52.063180641455965	327.7729	-147.94845407463816	31.856422464715465	330.81746	-224.78122225626578	59.80519756232936	316.11446	-190.46700073464888	-52.46255999958082	405.2978	-157.44948058559535	130.95817232809236	260.94109	-211.3806281386167	
469	7.8	0.0	1249.97763	7.653905517926474E-14	112.46023693330388	1328.98769	130.60981580028383	92.85889235960524	1313.69063	-152.5194795014057	92.39623022981603	1409.85418	102.39127481412734	76.33873053057322	1397.30465	-130.58889986426223	-71.82029145640121	1218.86371	65.28737381689197	-79.86761063614964	1212.62608	-51.170560499060294	-57.27818294650527	1296.16584	1.4857630285724437	18.776641785554926	1380.81947	-7.423037568101856	105.3181070264498	1467.32953	-23.653632326787775	187.2485117682843	1543.29503	-40.66003602432722	451.3825406037983	1514.1118	-88.5488339753005	361.4168946167564	1643.31997	-79.01118418998884	277.4252222513786	1606.19119	-60.365260240475635	338.8079894082598	1458.56714	-63.168291665364045	415.94188495168265	1665.89427	-88.94611773228304	689.3772397929017	1660.17644	-119.97494490289928	595.3644565509456	1633.96352	-41.34810776687131	581.8434561232926	1654.38435	-184.11748805701575	580.4274585827018	1699.82998	-103.99148837331991	439.8707339482555	1597.80008	99.36080003900916	369.7358102524399	1600.32484	-269.7074287348717	466.27782367454324	1312.94805	57.92931895304877	428.04585576174077	1314.35895	5.93098985136569	396.9797146109838	1307.52725	-259.1228752804172	367.39854852809884	1302.84902	-201.94617267772705	538.3506826941592	1066.56144	22.79860528432497	587.5630722514256	1088.24465	16.57030620926754	422.4621078258952	1306.85893	37.43404497290813	454.39503937674687	1053.19508	-256.2421949077864	501.61013503374966	1071.68521	-275.19923946993987	358.4102420477691	1300.25001	-222.91270917979534	730.3622838724272	1035.96732	118.39389640091278	651.6561421533925	1011.1653	71.1522327259973	597.0322835210687	1048.21982	26.75335118264187	585.129288182979	991.48704	-417.33389612953147	533.3726661068605	981.31375	-338.233377065553	504.5585879358925	1029.20989	-281.64274970017516	37.681592918575035	1231.78453	171.46668655490058	400.27413379031316	981.83356	113.88462331955525	398.33488029638323	987.10585	28.134428899797346	423.8914272083677	1025.8683	70.15649118222271	-7.161457213207939	1227.25482	-178.8834922504932	220.516166556205	853.36797	-253.47960436566802	242.4578331390358	842.37785	-171.18642568986718	270.36268629315236	876.01652	-215.95468913054572	447.9625347547311	945.8929	69.30576991746673	313.4388293270781	559.97632	136.1192225405908	310.00871026398494	555.37235	70.77310303387867	260.52802661522895	793.14508	-220.6037788932334	-19.019859233885242	488.31776	-198.59173745410274	-1.7823054928686801	484.15934	-135.47757633174237	266.2938082433077	477.69893	106.24193438158713	432.9310903238943	466.63455	77.51917538282424	428.5442714799575	471.90684	156.70166850412335	453.29317463407403	467.97119	117.39967080959184	306.921638357773	480.29795	108.34784842205633	545.3097540103549	461.28801	123.02260019117901	-90.76622435323769	445.54541	-147.83836780899676	45.02222699316617	344.10957	-147.0403246220628	25.146964342111758	347.15413	-223.85319989666047	52.588556527808585	331.85707	-189.40307180287246	-56.95762049375406	424.75329	-157.38660742659167	121.97000553057318	274.30745	-209.6245865784098	
470	7.817	0.0	1249.97763	7.653905517926474E-14	113.6702090311611	1328.46788	129.85072265105444	91.23127525197373	1314.58172	-153.11620397571963	93.2077312811882	1409.48289	102.17383376275515	74.7455739486278	1398.04722	-130.65125171992	-71.0585338328579	1218.49243	65.89867090986203	-80.34033302238063	1212.77459	-50.500281308233006	-57.39223742081918	1296.01733	2.2773711729146924	18.553871785554925	1380.89373	-7.0371886096997365	104.85799440779363	1467.55231	-23.747793894071744	186.65250123771105	1543.5178	-41.26137550352828	450.48026640319677	1514.40883	-90.69892921749995	360.58620594184094	1643.617	-80.69120919976315	276.7304401486343	1606.48822	-61.53810233833285	338.0959788727994	1458.86417	-64.60831324242233	415.0667917975661	1666.1913	-90.99477192799746	688.378853494443	1660.25069	-123.29520910838797	594.6776678711431	1634.11203	-44.316974879389946	580.5208587783488	1654.60712	-187.02472225761733	579.500667809929	1699.97849	-106.84169966689153	439.6858078919962	1598.17137	97.45338136409369	367.9007010469511	1599.95355	-271.2814063535278	465.98878709748493	1313.31934	56.6477649897595	427.6454341846825	1314.65598	4.842360367277474	395.95077250823954	1307.45299	-259.71693528041715	366.66396329078646	1302.84902	-202.45603372421203	537.6161061171009	1066.70996	22.288749237839973	586.9027506743673	1088.31891	15.931836730066532	422.0988212488369	1307.23022	36.28109578208082	453.6332767532035	1053.19508	-256.85348334050246	500.8855024102064	1071.75947	-275.87483894914095	357.54704703799484	1300.25001	-223.49681156602637	729.5534472953689	1036.11584	118.01266244739776	650.8844355763342	1011.31381	70.70668772599731	596.2977069440104	1048.36834	26.243495136156874	584.3675255594358	991.48704	-417.94518456224745	532.5737784833171	981.31375	-338.78036311203795	503.79682531234914	1029.28414	-282.25403813289114	37.75584791857503	1229.77958	171.33807312218457	391.0864819781325	967.20482	112.8673830605044	389.47871900988866	972.92265	27.137090208030433	416.3240993643635	1010.57124	69.30304748556867	-7.685872218095085	1228.66571	-179.01477881777717	230.96229364698513	862.5759	-257.9094472292209	253.30971575550205	851.36301	-175.72499773936016	280.2273754720154	886.26407	-220.12001198921132	440.3408484780108	932.60079	68.24945778809663	316.2897459041364	542.74856	132.9634701809855	313.1268113202443	538.44162	67.6001135813033	269.0395626448626	801.6847	-224.9501317470119	-20.72173634151676	506.8079	-199.05983983544658	-3.07843207481411	502.35244	-136.0543992387723	269.8919198252531	460.2484	102.83160231035563	436.6306379523247	450.52066	74.08167092536175	432.1423780619029	455.42166	153.29134509314588	456.9284112160194	451.8573	113.92503635212933	310.41830389323343	463.14445	104.96470605756386	548.9821205923002	445.76818	119.48365468723148	-93.35386617249543	466.33752	-147.9604207062524	39.4557691078748	361.04029	-146.30983674654573	19.617636456820378	364.0106	-223.18702306762845	46.616348116831126	348.26799	-188.56386340166932	-60.218188657644895	444.5058	-157.38269770519113	114.43910606333638	288.56491	-208.31336607446227	
471	7.833	0.0	1249.97763	7.653905517926474E-14	115.0187435152493	1328.0966	129.00013240885497	89.41072500488711	1315.47281	-153.82431845003353	94.12067337904543	1409.18586	101.92921166489793	73.08810632019733	1398.7898	-130.75073357557773	-70.29677986956862	1218.04688	66.50995434257806	-80.85018906886566	1212.84885	-49.76570473117473	-57.37766480216302	1295.94307	3.1432306570029076	18.303915739069893	1380.96798	-6.752772037528612	104.37070440290648	1467.70082	-23.943382847586715	186.00212861416773	1543.81483	-42.065597075699394	449.486495109625	1514.78012	-92.98758684593041	359.70116883420945	1643.98829	-82.57411996276154	275.94416595291983	1606.8595	-62.8495154826751	337.32960624436896	1459.23546	-66.25121691245064	414.1273875969645	1666.56259	-93.08055612371187	687.2617977167831	1660.32495	-126.85547174659276	593.8622620983703	1634.26055	-47.360110652162675	579.133959047174	1654.90415	-189.96908145821897	578.5466996509255	1700.20127	-109.79333834669411	439.3450786962818	1598.39414	95.37026164269317	365.97409474849235	1599.65652	-272.9939463584151	465.5611894739416	1313.69063	55.457685798932225	427.0421355146542	1314.87875	3.8080843159052855	394.8674719727791	1307.37873	-260.5138637131332	365.7735922345272	1302.92328	-203.14158581718212	536.7900411073266	1066.85847	21.640335805123904	586.076677004339	1088.31891	15.283418297350504	421.59695862529355	1307.60151	35.21964734447766	452.6785946504592	1053.19508	-257.57616543347245	499.89369030746195	1071.75947	-276.533209995626	356.55523493525044	1300.25001	-224.15518261251137	728.6259462391096	1036.26435	117.39142140091278	649.9569208598209	1011.46233	70.08545033976631	595.4716419342362	1048.4426	25.595081703440833	583.4400158429223	991.41278	-418.56643060873245	531.6190913805727	981.31375	-339.503036544754	502.8050132096048	1029.28414	-282.9124091793762	37.995855011545075	1228.14591	171.2194086429835	380.8572609751246	952.20479	112.02051355956475	379.31380905336573	957.99688	26.327350707090833	407.66085755707	994.60586	68.41710245405581	-8.311733269467268	1230.00235	-179.11887567832207	241.43561544450432	872.3779	-262.2378527065427	264.18878307870733	860.94224	-180.162115082114	289.99062360439336	897.17993	-224.25815380139204	431.5861282380013	918.56611	67.22493804984472	317.6018643319653	525.29803	129.9482343984385	314.70611422727427	521.21387	64.56764070578626	277.5510986744962	810.96689	-229.29648460079045	-21.189128439373974	525.66932	-199.58693297490166	-3.10294864698524	520.84258	-136.7545152901445	271.48117534605205	442.87213	99.63339100212251	438.22984242663864	433.51568	70.71770752415858	433.7415825362168	438.19391	149.9273816919427	458.52761569033333	434.77806	110.56107295092616	312.04468941403235	445.84244	101.70218370284572	550.6184500666142	428.83745	116.05538889979726	-94.56845327523979	487.42667	-148.23293413408126	35.40091966507375	378.63934	-145.82131149457197	15.59992567427338	381.46112	-222.7628038621397	42.19287314834398	365.34723	-188.03092001024044	-62.04140337904544	464.6296	-157.4921371746179	108.29119294561984	303.71345	-207.31836819405805	
